<mxfile host="app.diagrams.net" modified="2020-12-01T02:41:20.149Z" agent="5.0 (Windows NT 10.0; Win64; x64) AppleWebKit/537.36 (KHTML, like Gecko) Chrome/87.0.4280.66 Safari/537.36" etag="9l9jQ-JQtRLNKSEwVPkW" version="13.10.4" type="github">
  <diagram name="Page-1" id="19d8dcba-68ad-dc05-1034-9cf7b2a963f6">
    <mxGraphModel dx="1422" dy="761" grid="1" gridSize="10" guides="1" tooltips="1" connect="1" arrows="1" fold="1" page="1" pageScale="1" pageWidth="1100" pageHeight="850" background="#ffffff" math="0" shadow="0">
      <root>
        <mxCell id="0" />
        <mxCell id="1" parent="0" />
        <mxCell id="booq3Bh0OugslzeFp9TW-37" style="edgeStyle=orthogonalEdgeStyle;rounded=0;orthogonalLoop=1;jettySize=auto;html=1;exitX=0.5;exitY=1;exitDx=0;exitDy=0;entryX=0.5;entryY=0;entryDx=0;entryDy=0;" parent="1" source="6257edae8c83ed4a-9" target="booq3Bh0OugslzeFp9TW-11" edge="1">
          <mxGeometry relative="1" as="geometry" />
        </mxCell>
        <mxCell id="booq3Bh0OugslzeFp9TW-38" style="edgeStyle=orthogonalEdgeStyle;rounded=0;orthogonalLoop=1;jettySize=auto;html=1;exitX=0.5;exitY=1;exitDx=0;exitDy=0;" parent="1" source="6257edae8c83ed4a-9" target="booq3Bh0OugslzeFp9TW-12" edge="1">
          <mxGeometry relative="1" as="geometry" />
        </mxCell>
        <mxCell id="booq3Bh0OugslzeFp9TW-39" style="edgeStyle=orthogonalEdgeStyle;rounded=0;orthogonalLoop=1;jettySize=auto;html=1;exitX=0.5;exitY=1;exitDx=0;exitDy=0;" parent="1" source="6257edae8c83ed4a-9" target="booq3Bh0OugslzeFp9TW-13" edge="1">
          <mxGeometry relative="1" as="geometry" />
        </mxCell>
        <mxCell id="booq3Bh0OugslzeFp9TW-40" style="edgeStyle=orthogonalEdgeStyle;rounded=0;orthogonalLoop=1;jettySize=auto;html=1;exitX=0.5;exitY=1;exitDx=0;exitDy=0;" parent="1" source="6257edae8c83ed4a-9" target="booq3Bh0OugslzeFp9TW-15" edge="1">
          <mxGeometry relative="1" as="geometry" />
        </mxCell>
        <mxCell id="booq3Bh0OugslzeFp9TW-41" style="edgeStyle=orthogonalEdgeStyle;rounded=0;orthogonalLoop=1;jettySize=auto;html=1;exitX=0.5;exitY=1;exitDx=0;exitDy=0;entryX=0.5;entryY=0;entryDx=0;entryDy=0;" parent="1" source="6257edae8c83ed4a-9" target="booq3Bh0OugslzeFp9TW-30" edge="1">
          <mxGeometry relative="1" as="geometry" />
        </mxCell>
        <mxCell id="6257edae8c83ed4a-9" value="项目经理&lt;br&gt;李磊 18631553286" style="whiteSpace=wrap;html=1;rounded=1;shadow=0;comic=0;strokeWidth=1;fontFamily=Verdana;align=center;fontSize=12;fontStyle=0;" parent="1" vertex="1">
          <mxGeometry x="445" y="100" width="200" height="40" as="geometry" />
        </mxCell>
        <mxCell id="booq3Bh0OugslzeFp9TW-11" value="安&lt;br&gt;全&lt;br&gt;经&lt;br&gt;理" style="rounded=1;whiteSpace=wrap;html=1;" parent="1" vertex="1">
          <mxGeometry x="360" y="260" width="40" height="140" as="geometry" />
        </mxCell>
        <mxCell id="booq3Bh0OugslzeFp9TW-12" value="材&lt;br&gt;料&lt;br&gt;员&lt;br&gt;&amp;nbsp;&lt;br&gt;杨&lt;br&gt;仁&lt;br&gt;龙" style="rounded=1;whiteSpace=wrap;html=1;" parent="1" vertex="1">
          <mxGeometry x="447" y="260" width="40" height="140" as="geometry" />
        </mxCell>
        <mxCell id="booq3Bh0OugslzeFp9TW-17" value="" style="edgeStyle=orthogonalEdgeStyle;rounded=0;orthogonalLoop=1;jettySize=auto;html=1;exitX=0.5;exitY=1;exitDx=0;exitDy=0;" parent="1" source="booq3Bh0OugslzeFp9TW-13" target="booq3Bh0OugslzeFp9TW-16" edge="1">
          <mxGeometry relative="1" as="geometry" />
        </mxCell>
        <mxCell id="booq3Bh0OugslzeFp9TW-23" style="edgeStyle=orthogonalEdgeStyle;rounded=0;orthogonalLoop=1;jettySize=auto;html=1;exitX=0.5;exitY=1;exitDx=0;exitDy=0;entryX=0.5;entryY=0;entryDx=0;entryDy=0;" parent="1" source="booq3Bh0OugslzeFp9TW-13" target="booq3Bh0OugslzeFp9TW-22" edge="1">
          <mxGeometry relative="1" as="geometry" />
        </mxCell>
        <mxCell id="booq3Bh0OugslzeFp9TW-25" style="edgeStyle=orthogonalEdgeStyle;rounded=0;orthogonalLoop=1;jettySize=auto;html=1;entryX=0.5;entryY=0;entryDx=0;entryDy=0;exitX=0.5;exitY=1;exitDx=0;exitDy=0;" parent="1" source="booq3Bh0OugslzeFp9TW-13" target="booq3Bh0OugslzeFp9TW-24" edge="1">
          <mxGeometry relative="1" as="geometry" />
        </mxCell>
        <mxCell id="booq3Bh0OugslzeFp9TW-13" value="项&lt;br&gt;目&lt;br&gt;工&lt;br&gt;程&lt;br&gt;师&lt;br&gt;&lt;br&gt;许&lt;br&gt;彦&lt;br&gt;杰" style="rounded=1;whiteSpace=wrap;html=1;" parent="1" vertex="1">
          <mxGeometry x="525" y="260" width="40" height="140" as="geometry" />
        </mxCell>
        <mxCell id="booq3Bh0OugslzeFp9TW-15" value="质&lt;br&gt;量&lt;br&gt;员&lt;br&gt;&lt;br&gt;陈&lt;br&gt;圣&lt;br&gt;海" style="rounded=1;whiteSpace=wrap;html=1;" parent="1" vertex="1">
          <mxGeometry x="605" y="260" width="40" height="140" as="geometry" />
        </mxCell>
        <mxCell id="booq3Bh0OugslzeFp9TW-16" value="施&lt;br&gt;工&lt;br&gt;队&lt;br&gt;&lt;br&gt;李&lt;br&gt;磊" style="whiteSpace=wrap;html=1;rounded=1;" parent="1" vertex="1">
          <mxGeometry x="637" y="482.5" width="40" height="187.5" as="geometry" />
        </mxCell>
        <mxCell id="booq3Bh0OugslzeFp9TW-22" value="专&lt;br&gt;职&lt;br&gt;安&lt;br&gt;全&lt;br&gt;员&lt;br&gt;&lt;br&gt;|&lt;br&gt;&lt;br&gt;藏&lt;br&gt;金&lt;br&gt;斌" style="rounded=1;whiteSpace=wrap;html=1;" parent="1" vertex="1">
          <mxGeometry x="425" y="484.5" width="35" height="185.5" as="geometry" />
        </mxCell>
        <mxCell id="booq3Bh0OugslzeFp9TW-24" value="项&lt;br&gt;目&lt;br&gt;技&lt;br&gt;术&lt;br&gt;员&lt;br&gt;&lt;br&gt;许&lt;br&gt;彦&lt;br&gt;杰" style="whiteSpace=wrap;html=1;rounded=1;" parent="1" vertex="1">
          <mxGeometry x="527.5" y="483.5" width="35" height="187.5" as="geometry" />
        </mxCell>
        <mxCell id="booq3Bh0OugslzeFp9TW-30" value="资&lt;br&gt;料&lt;br&gt;员&lt;br&gt;&lt;br&gt;张&lt;br&gt;振&lt;br&gt;民" style="rounded=1;whiteSpace=wrap;html=1;" parent="1" vertex="1">
          <mxGeometry x="685" y="260" width="40" height="140" as="geometry" />
        </mxCell>
        <mxCell id="booq3Bh0OugslzeFp9TW-42" value="&lt;span style=&quot;color: rgb(0 , 0 , 0) ; font-family: &amp;#34;verdana&amp;#34; ; font-size: 12px ; font-style: normal ; font-weight: 400 ; letter-spacing: normal ; text-align: center ; text-indent: 0px ; text-transform: none ; word-spacing: 0px ; background-color: rgb(248 , 249 , 250) ; display: inline ; float: none&quot;&gt;项目经理:李磊 18631553286&lt;/span&gt;" style="text;whiteSpace=wrap;html=1;" parent="1" vertex="1">
          <mxGeometry x="820" y="60" width="190" height="30" as="geometry" />
        </mxCell>
        <mxCell id="booq3Bh0OugslzeFp9TW-43" value="&lt;span style=&quot;color: rgb(0 , 0 , 0) ; font-family: &amp;#34;verdana&amp;#34; ; font-size: 12px ; font-style: normal ; font-weight: 400 ; letter-spacing: normal ; text-align: center ; text-indent: 0px ; text-transform: none ; word-spacing: 0px ; background-color: rgb(248 , 249 , 250) ; display: inline ; float: none&quot;&gt;项目工程师:许彦杰 19930060223&lt;/span&gt;" style="text;whiteSpace=wrap;html=1;" parent="1" vertex="1">
          <mxGeometry x="820" y="90" width="210" height="30" as="geometry" />
        </mxCell>
      </root>
    </mxGraphModel>
  </diagram>
</mxfile>
